<svg id="Layer_1" data-name="Layer 1" xmlns="http://www.w3.org/2000/svg" xmlns:xlink="http://www.w3.org/1999/xlink" viewBox="0 0 880.67 888.96"><defs><style>.cls-1{fill:none;}.cls-2{isolation:isolate;}.cls-3{clip-path:url(#clip-path);}.cls-4{fill:#792432;}.cls-5{fill:#e5445e;}.cls-6{clip-path:url(#clip-path-2);}.cls-7{fill:#e3e3e3;}.cls-22,.cls-8{fill:#fff;}.cls-9{font-size:43.97px;fill:#e94560;}.cls-14,.cls-15,.cls-22,.cls-9{font-family:VarelaRound-Regular, Varela Round;}.cls-10{letter-spacing:-0.01em;}.cls-11{letter-spacing:0.02em;}.cls-12{letter-spacing:-0.02em;}.cls-13{letter-spacing:0em;}.cls-14{font-size:43.32px;}.cls-15{font-size:37.69px;}.cls-16{opacity:0.2;}.cls-17{fill:#253d49;}.cls-18{fill:#ff9d00;}.cls-19{fill:#0093c1;}.cls-20{fill:#ff6c6c;}.cls-21{fill:#ffb521;}.cls-22{font-size:63.82px;letter-spacing:0.05em;}.cls-23{letter-spacing:0.07em;}</style><clipPath id="clip-path"><path class="cls-1" d="M33.81,335.24l15.45-20.85A164.3,164.3,0,0,0,27.4,354.57a178.41,178.41,0,0,0-11.1,63L.85,438.46a178.37,178.37,0,0,1,11.1-63A163.94,163.94,0,0,1,33.81,335.24Z"/></clipPath><clipPath id="clip-path-2"><path class="cls-1" d="M840.83,779.62l-15.45,20.85C746.6,906.76,540,920.23,333.09,824.88,134.91,733.57.86,572.14.85,438.46L16.3,417.61c0,133.68,134.06,295.11,332.24,386.43C555.48,899.39,762.05,885.92,840.83,779.62Z"/></clipPath></defs><title>hero</title><g class="cls-2"><g class="cls-2"><g class="cls-3"><g class="cls-2"><path class="cls-4" d="M16.3,417.61.85,438.46a178.37,178.37,0,0,1,11.1-63,163.94,163.94,0,0,1,21.86-40.18l15.45-20.85A164.3,164.3,0,0,0,27.4,354.57a178.41,178.41,0,0,0-11.1,63"/></g></g></g><path class="cls-5" d="M16.3,417.61a178.41,178.41,0,0,1,11.1-63C80.7,212.62,310.89,183.7,541.56,290,739.74,381.3,873.79,542.73,873.79,676.41a178.18,178.18,0,0,1-11.1,63C809.39,881.4,579.19,910.31,348.54,804,150.36,712.72,16.32,551.29,16.3,417.61Z"/><g class="cls-2"><g class="cls-6"><g class="cls-2"><path class="cls-4" d="M840.83,779.62l-15.45,20.85C746.6,906.76,540,920.23,333.09,824.88,134.91,733.57.86,572.14.85,438.46L16.3,417.61c0,133.68,134.06,295.11,332.24,386.43,206.94,95.35,413.51,81.88,492.29-24.42"/></g></g></g></g><rect class="cls-7" x="198.09" y="657.83" width="625.08" height="14.09"/><polygon class="cls-8" points="585.11 671.92 184.48 671.92 121.6 366.46 522.23 366.46 585.11 671.92"/><polygon class="cls-7" points="585.11 671.92 570.41 671.92 507.53 366.46 522.23 366.46 585.11 671.92"/><text class="cls-9" transform="matrix(0.99, 0, 0.17, 0.99, 225.77, 513.56)">S<tspan class="cls-10" x="27.09" y="0">e</tspan><tspan class="cls-11" x="51.71" y="0">x</tspan><tspan x="76.21" y="0">y</tspan><tspan class="cls-12" x="99.82" y="0">C</tspan><tspan class="cls-13" x="129.68" y="0">oders</tspan></text><text class="cls-14" transform="matrix(0.17, 1, -1, 0, 307.39, 528.46)">}</text><text class="cls-14" transform="matrix(0.17, 1, -1, 0, 350.7, 528.46)">}</text><text class="cls-15" transform="matrix(0.99, 0, 0.17, 0.99, 324.77, 575.93)">) . (</text><g class="cls-16"><path d="M381.1,12.44H34.73c-15.74,0-28.5,13.61-28.5,30.4V259.09c0,16.78,12.76,30.39,28.5,30.39H176A12.76,12.76,0,0,1,187.47,297l17.47,37.09a3.24,3.24,0,0,0,5.95,0L228.36,297a12.76,12.76,0,0,1,11.45-7.53H381.1c15.74,0,28.5-13.61,28.5-30.39V42.84C409.6,26.05,396.84,12.44,381.1,12.44Z"/></g><path class="cls-17" d="M374.87,0H28.5C12.76,0,0,13.61,0,30.39V246.64C0,263.43,12.76,277,28.5,277H169.78a12.76,12.76,0,0,1,11.46,7.53l17.47,37.09a3.24,3.24,0,0,0,5.95,0l17.47-37.09A12.76,12.76,0,0,1,233.59,277H374.87c15.74,0,28.5-13.61,28.5-30.4V30.39C403.37,13.61,390.61,0,374.87,0Z"/><path class="cls-18" d="M148.37,55.77H55a5.72,5.72,0,0,1-5.53-5.9h0A5.72,5.72,0,0,1,55,44h93.36a5.73,5.73,0,0,1,5.53,5.9h0A5.73,5.73,0,0,1,148.37,55.77Z"/><rect class="cls-8" x="49.48" y="70.82" width="143.91" height="11.8" rx="5.71" ry="5.71"/><path class="cls-19" d="M343.6,55.77H172.71a5.73,5.73,0,0,1-5.54-5.9h0a5.73,5.73,0,0,1,5.54-5.9H343.6a5.73,5.73,0,0,1,5.54,5.9h0A5.73,5.73,0,0,1,343.6,55.77Z"/><rect class="cls-8" x="205.23" y="70.82" width="143.91" height="11.8" rx="5.71" ry="5.71"/><path class="cls-20" d="M255.57,103.19H52.06a2.67,2.67,0,0,1-2.58-2.76h0a2.67,2.67,0,0,1,2.58-2.76H255.57a2.68,2.68,0,0,1,2.59,2.76h0A2.68,2.68,0,0,1,255.57,103.19Z"/><path class="cls-18" d="M213.61,153.3H55a5.72,5.72,0,0,1-5.53-5.9h0A5.72,5.72,0,0,1,55,141.5h158.6a5.73,5.73,0,0,1,5.53,5.9h0A5.73,5.73,0,0,1,213.61,153.3Z"/><path class="cls-18" d="M148.37,180.15H55a5.72,5.72,0,0,1-5.53-5.9h0a5.72,5.72,0,0,1,5.53-5.9h93.36a5.73,5.73,0,0,1,5.53,5.9h0A5.73,5.73,0,0,1,148.37,180.15Z"/><path class="cls-8" d="M187.85,207H55a5.72,5.72,0,0,1-5.53-5.9h0A5.72,5.72,0,0,1,55,195.2H187.85a5.73,5.73,0,0,1,5.53,5.9h0A5.73,5.73,0,0,1,187.85,207Z"/><path class="cls-19" d="M343.6,180.15H172.71a5.73,5.73,0,0,1-5.54-5.9h0a5.73,5.73,0,0,1,5.54-5.9H343.6a5.73,5.73,0,0,1,5.54,5.9h0A5.73,5.73,0,0,1,343.6,180.15Z"/><path class="cls-8" d="M343.6,207H210.76a5.73,5.73,0,0,1-5.53-5.9h0a5.73,5.73,0,0,1,5.53-5.9H343.6a5.73,5.73,0,0,1,5.54,5.9h0A5.73,5.73,0,0,1,343.6,207Z"/><path class="cls-20" d="M255.57,227.57H52.06a2.67,2.67,0,0,1-2.58-2.76h0a2.67,2.67,0,0,1,2.58-2.76H255.57a2.68,2.68,0,0,1,2.59,2.76h0A2.68,2.68,0,0,1,255.57,227.57Z"/><rect class="cls-16" x="609.06" y="296.88" width="271.61" height="152.22"/><rect class="cls-21" x="598.66" y="284.78" width="271.61" height="152.22"/><text class="cls-22" transform="translate(628.79 383.89) scale(0.94 1)">P<tspan class="cls-23" x="46.08" y="0">y</tspan><tspan x="84.88" y="0">thon</tspan></text></svg>